<svg width="24" height="24" viewBox="0 0 24 24" fill="none" xmlns="http://www.w3.org/2000/svg">
<rect width="24" height="24" rx="6" fill="#F1F1F1"/>
<path d="M6.27551 18.953V18.0259C6.27551 17.6706 6.0592 17.4388 5.68839 17.4388C5.50298 17.4388 5.30212 17.5006 5.16306 17.7015C5.05491 17.5315 4.9004 17.4388 4.66864 17.4388C4.51414 17.4388 4.35963 17.4851 4.23602 17.6551V17.4697H3.91156V18.953H4.23602V18.1341C4.23602 17.8714 4.37508 17.7478 4.59139 17.7478C4.8077 17.7478 4.91585 17.8869 4.91585 18.1341V18.953H5.24032V18.1341C5.24032 17.8714 5.39482 17.7478 5.59568 17.7478C5.81199 17.7478 5.92015 17.8869 5.92015 18.1341V18.953H6.27551ZM11.0807 17.4697H10.5553V17.0216H10.2309V17.4697H9.93732V17.7633H10.2309V18.4431C10.2309 18.783 10.3699 18.9839 10.7408 18.9839C10.8798 18.9839 11.0343 18.9375 11.1425 18.8757L11.0498 18.5976C10.9571 18.6594 10.8489 18.6748 10.7717 18.6748C10.6172 18.6748 10.5553 18.5821 10.5553 18.4276V17.7633H11.0807V17.4697ZM13.8309 17.4388C13.6455 17.4388 13.5219 17.5315 13.4446 17.6551V17.4697H13.1202V18.953H13.4446V18.1186C13.4446 17.8714 13.5528 17.7324 13.7536 17.7324C13.8154 17.7324 13.8927 17.7478 13.9545 17.7633L14.0472 17.4542C13.9854 17.4388 13.8927 17.4388 13.8309 17.4388ZM9.67466 17.5933C9.52015 17.4851 9.30384 17.4388 9.07208 17.4388C8.70127 17.4388 8.45406 17.6242 8.45406 17.9178C8.45406 18.165 8.63947 18.304 8.96393 18.3504L9.11844 18.3658C9.28839 18.3967 9.3811 18.4431 9.3811 18.5203C9.3811 18.6285 9.25749 18.7057 9.04118 18.7057C8.82487 18.7057 8.65492 18.6285 8.54676 18.5512L8.39225 18.7985C8.56221 18.9221 8.79397 18.9839 9.02573 18.9839C9.45835 18.9839 9.70556 18.783 9.70556 18.5049C9.70556 18.2422 9.5047 18.1032 9.19569 18.0568L9.04118 18.0414C8.90213 18.0259 8.79397 17.995 8.79397 17.9023C8.79397 17.7942 8.90213 17.7324 9.07208 17.7324C9.25749 17.7324 9.4429 17.8096 9.5356 17.856L9.67466 17.5933ZM18.2961 17.4388C18.1107 17.4388 17.9871 17.5315 17.9099 17.6551V17.4697H17.5854V18.953H17.9099V18.1186C17.9099 17.8714 18.018 17.7324 18.2189 17.7324C18.2807 17.7324 18.3579 17.7478 18.4197 17.7633L18.5124 17.4542C18.4506 17.4388 18.3579 17.4388 18.2961 17.4388ZM14.1554 18.2113C14.1554 18.6594 14.4644 18.9839 14.9433 18.9839C15.1596 18.9839 15.3142 18.9375 15.4687 18.8139L15.3142 18.5512C15.1905 18.6439 15.0669 18.6903 14.9279 18.6903C14.6652 18.6903 14.4798 18.5049 14.4798 18.2113C14.4798 17.9332 14.6652 17.7478 14.9279 17.7324C15.0669 17.7324 15.1905 17.7787 15.3142 17.8714L15.4687 17.6087C15.3142 17.4851 15.1596 17.4388 14.9433 17.4388C14.4644 17.4388 14.1554 17.7633 14.1554 18.2113ZM17.1528 18.2113V17.4697H16.8283V17.6551C16.7202 17.516 16.5657 17.4388 16.3648 17.4388C15.9476 17.4388 15.6232 17.7633 15.6232 18.2113C15.6232 18.6594 15.9476 18.9839 16.3648 18.9839C16.5811 18.9839 16.7356 18.9066 16.8283 18.7675V18.953H17.1528V18.2113ZM15.9631 18.2113C15.9631 17.9487 16.133 17.7324 16.4112 17.7324C16.6738 17.7324 16.8592 17.9332 16.8592 18.2113C16.8592 18.474 16.6738 18.6903 16.4112 18.6903C16.133 18.6748 15.9631 18.474 15.9631 18.2113ZM12.085 17.4388C11.6523 17.4388 11.3433 17.7478 11.3433 18.2113C11.3433 18.6748 11.6523 18.9839 12.1004 18.9839C12.3167 18.9839 12.533 18.9221 12.703 18.783L12.5485 18.5512C12.4249 18.6439 12.2704 18.7057 12.1159 18.7057C11.915 18.7057 11.7141 18.613 11.6678 18.3504H12.7648V18.2268C12.7802 17.7478 12.5021 17.4388 12.085 17.4388ZM12.085 17.7169C12.2858 17.7169 12.4249 17.8405 12.4558 18.0723H11.6832C11.7141 17.8714 11.8532 17.7169 12.085 17.7169ZM20.1348 18.2113V16.8826H19.8103V17.6551C19.7021 17.516 19.5476 17.4388 19.3468 17.4388C18.9296 17.4388 18.6051 17.7633 18.6051 18.2113C18.6051 18.6594 18.9296 18.9839 19.3468 18.9839C19.5631 18.9839 19.7176 18.9066 19.8103 18.7675V18.953H20.1348V18.2113ZM18.9451 18.2113C18.9451 17.9487 19.115 17.7324 19.3931 17.7324C19.6558 17.7324 19.8412 17.9332 19.8412 18.2113C19.8412 18.474 19.6558 18.6903 19.3931 18.6903C19.115 18.6748 18.9451 18.474 18.9451 18.2113ZM8.09869 18.2113V17.4697H7.77423V17.6551C7.66607 17.516 7.51157 17.4388 7.31071 17.4388C6.89354 17.4388 6.56908 17.7633 6.56908 18.2113C6.56908 18.6594 6.89354 18.9839 7.31071 18.9839C7.52702 18.9839 7.68152 18.9066 7.77423 18.7675V18.953H8.09869V18.2113ZM6.89354 18.2113C6.89354 17.9487 7.0635 17.7324 7.34161 17.7324C7.60427 17.7324 7.78968 17.9332 7.78968 18.2113C7.78968 18.474 7.60427 18.6903 7.34161 18.6903C7.0635 18.6748 6.89354 18.474 6.89354 18.2113Z" fill="#242424"/>
<path d="M14.4335 6.20605H9.56653V14.9511H14.4335V6.20605Z" fill="#FF5F00"/>
<path d="M9.87555 10.5786C9.87555 8.80177 10.7099 7.2258 11.9923 6.20606C11.0498 5.46443 9.8601 5.01636 8.56224 5.01636C5.48756 5.01636 3 7.50392 3 10.5786C3 13.6533 5.48756 16.1408 8.56224 16.1408C9.8601 16.1408 11.0498 15.6928 11.9923 14.9511C10.7099 13.9468 9.87555 12.3554 9.87555 10.5786Z" fill="#EB001B"/>
<path d="M21 10.5786C21 13.6533 18.5125 16.1408 15.4378 16.1408C14.1399 16.1408 12.9502 15.6928 12.0078 14.9511C13.3056 13.9314 14.1245 12.3554 14.1245 10.5786C14.1245 8.80177 13.2902 7.2258 12.0078 6.20606C12.9502 5.46443 14.1399 5.01636 15.4378 5.01636C18.5125 5.01636 21 7.51937 21 10.5786Z" fill="#F79E1B"/>
</svg>
